<svg id="レイヤー_1" data-name="レイヤー 1" xmlns="http://www.w3.org/2000/svg" viewBox="0 0 722.573 116.228"><title>TipperLogo</title><path d="M842.782,481.77v9.809h-36.91V596.99H794.565V491.579h-36.91V481.77Z" transform="translate(-757.655 -480.772)"/><path d="M1263.09,596.99V481.77h66.5v9.809h-55.2v95.6h59.523v9.809Z" transform="translate(-757.655 -480.772)"/><path d="M1449.3,547.357a38.256,38.256,0,0,0,17.132-10.554q6.816-7.482,6.817-20.45,0-17.622-12.054-26.6t-35.83-8.978q-6.819,0-14.88.749a81.014,81.014,0,0,0-14.049,2.41V596.99h11.305V550.437h.018v-9.643h-.018V491.746q3.156-.332,7.9-.749t11.057-.415a75.4,75.4,0,0,1,12.885,1.081,31.726,31.726,0,0,1,11.056,3.99,22.689,22.689,0,0,1,7.814,7.9q2.994,4.988,2.993,12.635,0,8.316-2.993,13.135a19.824,19.824,0,0,1-8.146,7.4,35.4,35.4,0,0,1-12.138,3.325,139.01,139.01,0,0,1-14.8.749h-2.226v9.643h5.219q5.13,0,10.262-.464l.379-.035A57.129,57.129,0,0,0,1449.3,547.357Z" transform="translate(-757.655 -480.772)"/><path d="M1472.912,583.024q-4.324-7.314-8.811-14.049c-1.38-2.069-2.739-4.052-4.083-5.967h-13.274c1.788,2.471,3.609,5.06,5.469,7.8q4.239,6.236,8.313,12.885t7.565,13.3h12.137A143.175,143.175,0,0,0,1472.912,583.024Z" transform="translate(-757.655 -480.772)"/><circle cx="556.802" cy="57.93" r="11.977"/><path d="M1189.1,490.083q-11.97-9.309-36.412-9.311-6.982,0-15.047.749a81.018,81.018,0,0,0-14.048,2.41V596.99H1134.9V552.432h.013v-9.81h-.013V491.746q3.156-.332,7.565-.749t10.724-.415a75.324,75.324,0,0,1,13.3,1.164,35.787,35.787,0,0,1,11.556,4.073,22.737,22.737,0,0,1,8.146,7.9q3.076,4.989,3.076,12.637,0,7.98-2.826,13.134a20.156,20.156,0,0,1-8.064,8.064,36.818,36.818,0,0,1-12.636,3.991,114.926,114.926,0,0,1-16.543,1.08h-.9v9.81h2.23a106.757,106.757,0,0,0,21.2-1.912,45.226,45.226,0,0,0,15.878-6.152,28.4,28.4,0,0,0,9.976-11.139q3.492-6.9,3.492-16.71Q1201.074,499.4,1189.1,490.083Z" transform="translate(-757.655 -480.772)"/><path d="M1049.609,490.083q-11.97-9.309-36.412-9.311-6.982,0-15.047.749a81.047,81.047,0,0,0-14.049,2.41V596.99h11.306V552.432h.015v-9.81h-.015V491.746q3.156-.332,7.565-.749t10.724-.415a75.332,75.332,0,0,1,13.3,1.164,35.787,35.787,0,0,1,11.556,4.073,22.737,22.737,0,0,1,8.146,7.9q3.075,4.989,3.076,12.637,0,7.98-2.826,13.134a20.163,20.163,0,0,1-8.064,8.064,36.825,36.825,0,0,1-12.636,3.991,114.926,114.926,0,0,1-16.543,1.08h-.9v9.81h2.228a106.757,106.757,0,0,0,21.2-1.912,45.226,45.226,0,0,0,15.878-6.152,28.4,28.4,0,0,0,9.976-11.139q3.492-6.9,3.492-16.71Q1061.58,499.4,1049.609,490.083Z" transform="translate(-757.655 -480.772)"/><polygon points="155.454 104.955 155.454 1.868 155.454 0.998 154.395 0.998 144.148 0.998 144.148 0.999 136.417 0.999 136.417 12.271 144.148 12.271 144.148 116.218 155.445 116.218 155.445 116.228 163.195 116.228 163.195 104.955 155.454 104.955"/></svg>