<svg id="レイヤー_1" data-name="レイヤー 1" xmlns="http://www.w3.org/2000/svg" viewBox="0 0 791.001 791.001"><defs><style>.cls-1,.cls-2{fill:none;stroke:#000;stroke-miterlimit:10;}.cls-1{stroke-width:54px;}.cls-2{stroke-width:15px;}</style></defs><title>Tippericon</title><polygon points="425.208 97.467 579.308 358.924 654.444 226.635 425.208 97.467"/><polygon points="211.746 362.339 362.471 96.966 134.722 231.656 211.746 362.339"/><polygon points="397.94 678.248 558.388 395.757 393.702 116.339 233.254 398.831 397.94 678.248"/><polygon points="600.816 395.416 673.038 517.953 670.471 272.779 600.816 395.416"/><polygon points="579.896 432.249 428.577 698.669 657.224 563.448 579.896 432.249"/><polygon points="190.826 399.171 118.924 277.178 121.48 521.265 190.826 399.171"/><polygon points="212.334 435.664 137.058 568.199 366.723 697.609 212.334 435.664"/><circle class="cls-1" cx="395.5" cy="395.5" r="368.5"/><path class="cls-2" d="M455.5,326.5" transform="translate(-545 -229)"/></svg>